<mxfile host="Electron" agent="Mozilla/5.0 (Macintosh; Intel Mac OS X 10_15_7) AppleWebKit/537.36 (KHTML, like Gecko) draw.io/26.0.4 Chrome/128.0.6613.186 Electron/32.2.5 Safari/537.36" version="26.0.4">
  <diagram name="Page-1" id="eoGtSQt86EE4QGXwD__q">
    <mxGraphModel dx="1142" dy="769" grid="1" gridSize="10" guides="1" tooltips="1" connect="1" arrows="1" fold="1" page="1" pageScale="1" pageWidth="1169" pageHeight="827" math="0" shadow="0">
      <root>
        <mxCell id="0" />
        <mxCell id="1" parent="0" />
        <mxCell id="88VqrS8hQhuFBDtOoWsu-80" value="&lt;b&gt;&lt;font style=&quot;font-size: 16px;&quot;&gt;CVD-Net&lt;/font&gt;&lt;/b&gt;&lt;div&gt;&lt;b&gt;&lt;font style=&quot;font-size: 16px;&quot;&gt;Release&lt;/font&gt;&lt;/b&gt;&lt;div&gt;&lt;b&gt;&lt;font style=&quot;font-size: 16px;&quot;&gt;Pipeline&lt;/font&gt;&lt;/b&gt;&lt;/div&gt;&lt;/div&gt;" style="rounded=1;whiteSpace=wrap;html=1;fillColor=#e1d5e7;strokeColor=#9673a6;strokeWidth=3;verticalAlign=top;align=left;spacingLeft=32;" parent="1" vertex="1">
          <mxGeometry x="311.25" y="827" width="317.5" height="183" as="geometry" />
        </mxCell>
        <mxCell id="88VqrS8hQhuFBDtOoWsu-82" style="edgeStyle=orthogonalEdgeStyle;rounded=0;orthogonalLoop=1;jettySize=auto;html=1;strokeWidth=2;" parent="1" source="88VqrS8hQhuFBDtOoWsu-67" target="88VqrS8hQhuFBDtOoWsu-81" edge="1">
          <mxGeometry relative="1" as="geometry" />
        </mxCell>
        <mxCell id="88VqrS8hQhuFBDtOoWsu-67" value="&lt;b&gt;&lt;font style=&quot;font-size: 14px;&quot;&gt;Database (&lt;i style=&quot;&quot;&gt;cvdnet_consolidated&lt;/i&gt;) Tables&lt;/font&gt;&lt;/b&gt;" style="rounded=0;whiteSpace=wrap;html=1;align=center;labelPosition=center;verticalLabelPosition=middle;verticalAlign=top;strokeWidth=3;fillColor=#dae8fc;strokeColor=#6c8ebf;" parent="1" vertex="1">
          <mxGeometry x="280" y="580" width="380" height="210" as="geometry" />
        </mxCell>
        <mxCell id="88VqrS8hQhuFBDtOoWsu-40" value="&lt;b&gt;&lt;font style=&quot;font-size: 16px;&quot;&gt;CVD-Net Wrangling&lt;/font&gt;&lt;/b&gt;&lt;div&gt;&lt;b&gt;&lt;font style=&quot;font-size: 16px;&quot;&gt;Pipeline&lt;/font&gt;&lt;/b&gt;&lt;/div&gt;" style="rounded=1;whiteSpace=wrap;html=1;fillColor=#e1d5e7;strokeColor=#9673a6;strokeWidth=3;" parent="1" vertex="1">
          <mxGeometry x="140" y="190" width="700" height="360" as="geometry" />
        </mxCell>
        <mxCell id="88VqrS8hQhuFBDtOoWsu-44" style="edgeStyle=orthogonalEdgeStyle;rounded=0;orthogonalLoop=1;jettySize=auto;html=1;entryX=0.5;entryY=0;entryDx=0;entryDy=0;strokeWidth=2;" parent="1" source="88VqrS8hQhuFBDtOoWsu-14" target="88VqrS8hQhuFBDtOoWsu-41" edge="1">
          <mxGeometry relative="1" as="geometry" />
        </mxCell>
        <mxCell id="88VqrS8hQhuFBDtOoWsu-14" value="Data Dictionary" style="shape=table;startSize=30;container=1;collapsible=0;childLayout=tableLayout;fontSize=15;fillColor=#60a917;strokeColor=#2D7600;fontColor=#ffffff;" parent="1" vertex="1">
          <mxGeometry x="210" y="80" width="180" height="90" as="geometry" />
        </mxCell>
        <mxCell id="88VqrS8hQhuFBDtOoWsu-15" value="" style="shape=tableRow;horizontal=0;startSize=0;swimlaneHead=0;swimlaneBody=0;strokeColor=inherit;top=0;left=0;bottom=0;right=0;collapsible=0;dropTarget=0;fillColor=none;points=[[0,0.5],[1,0.5]];portConstraint=eastwest;fontSize=16;" parent="88VqrS8hQhuFBDtOoWsu-14" vertex="1">
          <mxGeometry y="30" width="180" height="20" as="geometry" />
        </mxCell>
        <mxCell id="88VqrS8hQhuFBDtOoWsu-16" value="" style="shape=partialRectangle;html=1;whiteSpace=wrap;connectable=0;strokeColor=inherit;overflow=hidden;fillColor=none;top=0;left=0;bottom=0;right=0;pointerEvents=1;fontSize=16;" parent="88VqrS8hQhuFBDtOoWsu-15" vertex="1">
          <mxGeometry width="60" height="20" as="geometry">
            <mxRectangle width="60" height="20" as="alternateBounds" />
          </mxGeometry>
        </mxCell>
        <mxCell id="88VqrS8hQhuFBDtOoWsu-17" value="" style="shape=partialRectangle;html=1;whiteSpace=wrap;connectable=0;strokeColor=inherit;overflow=hidden;fillColor=none;top=0;left=0;bottom=0;right=0;pointerEvents=1;fontSize=16;" parent="88VqrS8hQhuFBDtOoWsu-15" vertex="1">
          <mxGeometry x="60" width="60" height="20" as="geometry">
            <mxRectangle width="60" height="20" as="alternateBounds" />
          </mxGeometry>
        </mxCell>
        <mxCell id="88VqrS8hQhuFBDtOoWsu-18" value="" style="shape=partialRectangle;html=1;whiteSpace=wrap;connectable=0;strokeColor=inherit;overflow=hidden;fillColor=none;top=0;left=0;bottom=0;right=0;pointerEvents=1;fontSize=16;" parent="88VqrS8hQhuFBDtOoWsu-15" vertex="1">
          <mxGeometry x="120" width="60" height="20" as="geometry">
            <mxRectangle width="60" height="20" as="alternateBounds" />
          </mxGeometry>
        </mxCell>
        <mxCell id="88VqrS8hQhuFBDtOoWsu-19" value="" style="shape=tableRow;horizontal=0;startSize=0;swimlaneHead=0;swimlaneBody=0;strokeColor=inherit;top=0;left=0;bottom=0;right=0;collapsible=0;dropTarget=0;fillColor=none;points=[[0,0.5],[1,0.5]];portConstraint=eastwest;fontSize=16;" parent="88VqrS8hQhuFBDtOoWsu-14" vertex="1">
          <mxGeometry y="50" width="180" height="20" as="geometry" />
        </mxCell>
        <mxCell id="88VqrS8hQhuFBDtOoWsu-20" value="" style="shape=partialRectangle;html=1;whiteSpace=wrap;connectable=0;strokeColor=inherit;overflow=hidden;fillColor=none;top=0;left=0;bottom=0;right=0;pointerEvents=1;fontSize=16;" parent="88VqrS8hQhuFBDtOoWsu-19" vertex="1">
          <mxGeometry width="60" height="20" as="geometry">
            <mxRectangle width="60" height="20" as="alternateBounds" />
          </mxGeometry>
        </mxCell>
        <mxCell id="88VqrS8hQhuFBDtOoWsu-21" value="" style="shape=partialRectangle;html=1;whiteSpace=wrap;connectable=0;strokeColor=inherit;overflow=hidden;fillColor=none;top=0;left=0;bottom=0;right=0;pointerEvents=1;fontSize=16;" parent="88VqrS8hQhuFBDtOoWsu-19" vertex="1">
          <mxGeometry x="60" width="60" height="20" as="geometry">
            <mxRectangle width="60" height="20" as="alternateBounds" />
          </mxGeometry>
        </mxCell>
        <mxCell id="88VqrS8hQhuFBDtOoWsu-22" value="" style="shape=partialRectangle;html=1;whiteSpace=wrap;connectable=0;strokeColor=inherit;overflow=hidden;fillColor=none;top=0;left=0;bottom=0;right=0;pointerEvents=1;fontSize=16;" parent="88VqrS8hQhuFBDtOoWsu-19" vertex="1">
          <mxGeometry x="120" width="60" height="20" as="geometry">
            <mxRectangle width="60" height="20" as="alternateBounds" />
          </mxGeometry>
        </mxCell>
        <mxCell id="88VqrS8hQhuFBDtOoWsu-23" value="" style="shape=tableRow;horizontal=0;startSize=0;swimlaneHead=0;swimlaneBody=0;strokeColor=inherit;top=0;left=0;bottom=0;right=0;collapsible=0;dropTarget=0;fillColor=none;points=[[0,0.5],[1,0.5]];portConstraint=eastwest;fontSize=16;" parent="88VqrS8hQhuFBDtOoWsu-14" vertex="1">
          <mxGeometry y="70" width="180" height="20" as="geometry" />
        </mxCell>
        <mxCell id="88VqrS8hQhuFBDtOoWsu-24" value="" style="shape=partialRectangle;html=1;whiteSpace=wrap;connectable=0;strokeColor=inherit;overflow=hidden;fillColor=none;top=0;left=0;bottom=0;right=0;pointerEvents=1;fontSize=16;" parent="88VqrS8hQhuFBDtOoWsu-23" vertex="1">
          <mxGeometry width="60" height="20" as="geometry">
            <mxRectangle width="60" height="20" as="alternateBounds" />
          </mxGeometry>
        </mxCell>
        <mxCell id="88VqrS8hQhuFBDtOoWsu-25" value="" style="shape=partialRectangle;html=1;whiteSpace=wrap;connectable=0;strokeColor=inherit;overflow=hidden;fillColor=none;top=0;left=0;bottom=0;right=0;pointerEvents=1;fontSize=16;" parent="88VqrS8hQhuFBDtOoWsu-23" vertex="1">
          <mxGeometry x="60" width="60" height="20" as="geometry">
            <mxRectangle width="60" height="20" as="alternateBounds" />
          </mxGeometry>
        </mxCell>
        <mxCell id="88VqrS8hQhuFBDtOoWsu-26" value="" style="shape=partialRectangle;html=1;whiteSpace=wrap;connectable=0;strokeColor=inherit;overflow=hidden;fillColor=none;top=0;left=0;bottom=0;right=0;pointerEvents=1;fontSize=16;" parent="88VqrS8hQhuFBDtOoWsu-23" vertex="1">
          <mxGeometry x="120" width="60" height="20" as="geometry">
            <mxRectangle width="60" height="20" as="alternateBounds" />
          </mxGeometry>
        </mxCell>
        <mxCell id="88VqrS8hQhuFBDtOoWsu-43" style="edgeStyle=orthogonalEdgeStyle;rounded=0;orthogonalLoop=1;jettySize=auto;html=1;entryX=0.5;entryY=0;entryDx=0;entryDy=0;strokeWidth=2;" parent="1" source="88VqrS8hQhuFBDtOoWsu-27" target="88VqrS8hQhuFBDtOoWsu-42" edge="1">
          <mxGeometry relative="1" as="geometry" />
        </mxCell>
        <mxCell id="88VqrS8hQhuFBDtOoWsu-27" value="Raw Data" style="shape=table;startSize=30;container=1;collapsible=0;childLayout=tableLayout;fontSize=15;fillColor=#d80073;strokeColor=#A50040;fontColor=#ffffff;" parent="1" vertex="1">
          <mxGeometry x="590" y="80" width="180" height="90" as="geometry" />
        </mxCell>
        <mxCell id="88VqrS8hQhuFBDtOoWsu-28" value="" style="shape=tableRow;horizontal=0;startSize=0;swimlaneHead=0;swimlaneBody=0;strokeColor=inherit;top=0;left=0;bottom=0;right=0;collapsible=0;dropTarget=0;fillColor=none;points=[[0,0.5],[1,0.5]];portConstraint=eastwest;fontSize=16;" parent="88VqrS8hQhuFBDtOoWsu-27" vertex="1">
          <mxGeometry y="30" width="180" height="20" as="geometry" />
        </mxCell>
        <mxCell id="88VqrS8hQhuFBDtOoWsu-29" value="" style="shape=partialRectangle;html=1;whiteSpace=wrap;connectable=0;strokeColor=inherit;overflow=hidden;fillColor=none;top=0;left=0;bottom=0;right=0;pointerEvents=1;fontSize=16;" parent="88VqrS8hQhuFBDtOoWsu-28" vertex="1">
          <mxGeometry width="60" height="20" as="geometry">
            <mxRectangle width="60" height="20" as="alternateBounds" />
          </mxGeometry>
        </mxCell>
        <mxCell id="88VqrS8hQhuFBDtOoWsu-30" value="" style="shape=partialRectangle;html=1;whiteSpace=wrap;connectable=0;strokeColor=inherit;overflow=hidden;fillColor=none;top=0;left=0;bottom=0;right=0;pointerEvents=1;fontSize=16;" parent="88VqrS8hQhuFBDtOoWsu-28" vertex="1">
          <mxGeometry x="60" width="60" height="20" as="geometry">
            <mxRectangle width="60" height="20" as="alternateBounds" />
          </mxGeometry>
        </mxCell>
        <mxCell id="88VqrS8hQhuFBDtOoWsu-31" value="" style="shape=partialRectangle;html=1;whiteSpace=wrap;connectable=0;strokeColor=inherit;overflow=hidden;fillColor=none;top=0;left=0;bottom=0;right=0;pointerEvents=1;fontSize=16;" parent="88VqrS8hQhuFBDtOoWsu-28" vertex="1">
          <mxGeometry x="120" width="60" height="20" as="geometry">
            <mxRectangle width="60" height="20" as="alternateBounds" />
          </mxGeometry>
        </mxCell>
        <mxCell id="88VqrS8hQhuFBDtOoWsu-32" value="" style="shape=tableRow;horizontal=0;startSize=0;swimlaneHead=0;swimlaneBody=0;strokeColor=inherit;top=0;left=0;bottom=0;right=0;collapsible=0;dropTarget=0;fillColor=none;points=[[0,0.5],[1,0.5]];portConstraint=eastwest;fontSize=16;" parent="88VqrS8hQhuFBDtOoWsu-27" vertex="1">
          <mxGeometry y="50" width="180" height="20" as="geometry" />
        </mxCell>
        <mxCell id="88VqrS8hQhuFBDtOoWsu-33" value="" style="shape=partialRectangle;html=1;whiteSpace=wrap;connectable=0;strokeColor=inherit;overflow=hidden;fillColor=none;top=0;left=0;bottom=0;right=0;pointerEvents=1;fontSize=16;" parent="88VqrS8hQhuFBDtOoWsu-32" vertex="1">
          <mxGeometry width="60" height="20" as="geometry">
            <mxRectangle width="60" height="20" as="alternateBounds" />
          </mxGeometry>
        </mxCell>
        <mxCell id="88VqrS8hQhuFBDtOoWsu-34" value="" style="shape=partialRectangle;html=1;whiteSpace=wrap;connectable=0;strokeColor=inherit;overflow=hidden;fillColor=none;top=0;left=0;bottom=0;right=0;pointerEvents=1;fontSize=16;" parent="88VqrS8hQhuFBDtOoWsu-32" vertex="1">
          <mxGeometry x="60" width="60" height="20" as="geometry">
            <mxRectangle width="60" height="20" as="alternateBounds" />
          </mxGeometry>
        </mxCell>
        <mxCell id="88VqrS8hQhuFBDtOoWsu-35" value="" style="shape=partialRectangle;html=1;whiteSpace=wrap;connectable=0;strokeColor=inherit;overflow=hidden;fillColor=none;top=0;left=0;bottom=0;right=0;pointerEvents=1;fontSize=16;" parent="88VqrS8hQhuFBDtOoWsu-32" vertex="1">
          <mxGeometry x="120" width="60" height="20" as="geometry">
            <mxRectangle width="60" height="20" as="alternateBounds" />
          </mxGeometry>
        </mxCell>
        <mxCell id="88VqrS8hQhuFBDtOoWsu-36" value="" style="shape=tableRow;horizontal=0;startSize=0;swimlaneHead=0;swimlaneBody=0;strokeColor=inherit;top=0;left=0;bottom=0;right=0;collapsible=0;dropTarget=0;fillColor=none;points=[[0,0.5],[1,0.5]];portConstraint=eastwest;fontSize=16;" parent="88VqrS8hQhuFBDtOoWsu-27" vertex="1">
          <mxGeometry y="70" width="180" height="20" as="geometry" />
        </mxCell>
        <mxCell id="88VqrS8hQhuFBDtOoWsu-37" value="" style="shape=partialRectangle;html=1;whiteSpace=wrap;connectable=0;strokeColor=inherit;overflow=hidden;fillColor=none;top=0;left=0;bottom=0;right=0;pointerEvents=1;fontSize=16;" parent="88VqrS8hQhuFBDtOoWsu-36" vertex="1">
          <mxGeometry width="60" height="20" as="geometry">
            <mxRectangle width="60" height="20" as="alternateBounds" />
          </mxGeometry>
        </mxCell>
        <mxCell id="88VqrS8hQhuFBDtOoWsu-38" value="" style="shape=partialRectangle;html=1;whiteSpace=wrap;connectable=0;strokeColor=inherit;overflow=hidden;fillColor=none;top=0;left=0;bottom=0;right=0;pointerEvents=1;fontSize=16;" parent="88VqrS8hQhuFBDtOoWsu-36" vertex="1">
          <mxGeometry x="60" width="60" height="20" as="geometry">
            <mxRectangle width="60" height="20" as="alternateBounds" />
          </mxGeometry>
        </mxCell>
        <mxCell id="88VqrS8hQhuFBDtOoWsu-39" value="" style="shape=partialRectangle;html=1;whiteSpace=wrap;connectable=0;strokeColor=inherit;overflow=hidden;fillColor=none;top=0;left=0;bottom=0;right=0;pointerEvents=1;fontSize=16;" parent="88VqrS8hQhuFBDtOoWsu-36" vertex="1">
          <mxGeometry x="120" width="60" height="20" as="geometry">
            <mxRectangle width="60" height="20" as="alternateBounds" />
          </mxGeometry>
        </mxCell>
        <mxCell id="88VqrS8hQhuFBDtOoWsu-62" style="edgeStyle=orthogonalEdgeStyle;rounded=0;orthogonalLoop=1;jettySize=auto;html=1;entryX=0.5;entryY=0;entryDx=0;entryDy=0;strokeWidth=2;" parent="1" source="88VqrS8hQhuFBDtOoWsu-41" target="88VqrS8hQhuFBDtOoWsu-45" edge="1">
          <mxGeometry relative="1" as="geometry" />
        </mxCell>
        <mxCell id="88VqrS8hQhuFBDtOoWsu-41" value="Load and validate dictionary" style="rounded=0;whiteSpace=wrap;html=1;strokeWidth=2;spacingTop=2;spacingLeft=2;spacingBottom=2;spacingRight=2;" parent="1" vertex="1">
          <mxGeometry x="240" y="220" width="120" height="60" as="geometry" />
        </mxCell>
        <mxCell id="88VqrS8hQhuFBDtOoWsu-42" value="Transform to template format" style="rounded=0;whiteSpace=wrap;html=1;strokeWidth=2;spacingTop=2;spacingLeft=2;spacingBottom=2;spacingRight=2;" parent="1" vertex="1">
          <mxGeometry x="620" y="220" width="120" height="60" as="geometry" />
        </mxCell>
        <mxCell id="88VqrS8hQhuFBDtOoWsu-74" style="edgeStyle=orthogonalEdgeStyle;rounded=0;orthogonalLoop=1;jettySize=auto;html=1;exitX=0.75;exitY=1;exitDx=0;exitDy=0;entryX=0;entryY=0.5;entryDx=0;entryDy=0;strokeWidth=2;" parent="1" source="88VqrS8hQhuFBDtOoWsu-45" target="88VqrS8hQhuFBDtOoWsu-71" edge="1">
          <mxGeometry relative="1" as="geometry">
            <Array as="points">
              <mxPoint x="330" y="510" />
              <mxPoint x="240" y="510" />
              <mxPoint x="240" y="635" />
            </Array>
          </mxGeometry>
        </mxCell>
        <mxCell id="88VqrS8hQhuFBDtOoWsu-75" style="edgeStyle=orthogonalEdgeStyle;rounded=0;orthogonalLoop=1;jettySize=auto;html=1;exitX=0.5;exitY=1;exitDx=0;exitDy=0;entryX=0;entryY=0.5;entryDx=0;entryDy=0;strokeWidth=2;" parent="1" source="88VqrS8hQhuFBDtOoWsu-45" target="88VqrS8hQhuFBDtOoWsu-70" edge="1">
          <mxGeometry relative="1" as="geometry">
            <Array as="points">
              <mxPoint x="300" y="490" />
              <mxPoint x="220" y="490" />
              <mxPoint x="220" y="675" />
            </Array>
          </mxGeometry>
        </mxCell>
        <mxCell id="88VqrS8hQhuFBDtOoWsu-76" style="edgeStyle=orthogonalEdgeStyle;rounded=0;orthogonalLoop=1;jettySize=auto;html=1;exitX=0.25;exitY=1;exitDx=0;exitDy=0;entryX=0;entryY=0.5;entryDx=0;entryDy=0;strokeWidth=2;" parent="1" source="88VqrS8hQhuFBDtOoWsu-45" target="88VqrS8hQhuFBDtOoWsu-69" edge="1">
          <mxGeometry relative="1" as="geometry">
            <Array as="points">
              <mxPoint x="270" y="480" />
              <mxPoint x="190" y="480" />
              <mxPoint x="190" y="715" />
            </Array>
          </mxGeometry>
        </mxCell>
        <mxCell id="88VqrS8hQhuFBDtOoWsu-77" style="edgeStyle=orthogonalEdgeStyle;rounded=0;orthogonalLoop=1;jettySize=auto;html=1;exitX=0;exitY=0.75;exitDx=0;exitDy=0;entryX=0;entryY=0.5;entryDx=0;entryDy=0;strokeWidth=2;" parent="1" source="88VqrS8hQhuFBDtOoWsu-45" target="88VqrS8hQhuFBDtOoWsu-68" edge="1">
          <mxGeometry relative="1" as="geometry">
            <Array as="points">
              <mxPoint x="160" y="430" />
              <mxPoint x="160" y="755" />
            </Array>
          </mxGeometry>
        </mxCell>
        <mxCell id="88VqrS8hQhuFBDtOoWsu-45" value="Insert into database:&lt;div&gt;&lt;br&gt;&lt;/div&gt;&lt;div&gt;1) Datasets&lt;/div&gt;&lt;div&gt;2) Annotations&lt;/div&gt;&lt;div&gt;3) Metadata variables&lt;/div&gt;&lt;div&gt;4) Metadata variable options&lt;/div&gt;" style="rounded=0;whiteSpace=wrap;html=1;strokeWidth=2;spacingTop=2;spacingLeft=2;spacingBottom=2;spacingRight=2;" parent="1" vertex="1">
          <mxGeometry x="240" y="340" width="120" height="120" as="geometry" />
        </mxCell>
        <mxCell id="88VqrS8hQhuFBDtOoWsu-64" style="edgeStyle=orthogonalEdgeStyle;rounded=0;orthogonalLoop=1;jettySize=auto;html=1;entryX=0.5;entryY=0;entryDx=0;entryDy=0;strokeWidth=2;" parent="1" source="88VqrS8hQhuFBDtOoWsu-46" target="88VqrS8hQhuFBDtOoWsu-63" edge="1">
          <mxGeometry relative="1" as="geometry" />
        </mxCell>
        <mxCell id="88VqrS8hQhuFBDtOoWsu-46" value="Load and validate measurement data" style="rounded=0;whiteSpace=wrap;html=1;strokeWidth=2;spacingTop=2;spacingLeft=2;spacingBottom=2;spacingRight=2;" parent="1" vertex="1">
          <mxGeometry x="620" y="340" width="120" height="60" as="geometry" />
        </mxCell>
        <mxCell id="88VqrS8hQhuFBDtOoWsu-60" style="edgeStyle=orthogonalEdgeStyle;rounded=0;orthogonalLoop=1;jettySize=auto;html=1;entryX=1;entryY=0.5;entryDx=0;entryDy=0;strokeWidth=2;" parent="1" source="88VqrS8hQhuFBDtOoWsu-47" target="88VqrS8hQhuFBDtOoWsu-46" edge="1">
          <mxGeometry relative="1" as="geometry">
            <Array as="points">
              <mxPoint x="980" y="370" />
            </Array>
          </mxGeometry>
        </mxCell>
        <mxCell id="88VqrS8hQhuFBDtOoWsu-47" value="Transformed Data" style="shape=table;startSize=30;container=1;collapsible=0;childLayout=tableLayout;fontSize=15;fillColor=#f0a30a;strokeColor=#BD7000;fontColor=#000000;" parent="1" vertex="1">
          <mxGeometry x="890" y="198" width="180" height="90" as="geometry" />
        </mxCell>
        <mxCell id="88VqrS8hQhuFBDtOoWsu-48" value="" style="shape=tableRow;horizontal=0;startSize=0;swimlaneHead=0;swimlaneBody=0;strokeColor=inherit;top=0;left=0;bottom=0;right=0;collapsible=0;dropTarget=0;fillColor=none;points=[[0,0.5],[1,0.5]];portConstraint=eastwest;fontSize=16;" parent="88VqrS8hQhuFBDtOoWsu-47" vertex="1">
          <mxGeometry y="30" width="180" height="20" as="geometry" />
        </mxCell>
        <mxCell id="88VqrS8hQhuFBDtOoWsu-49" value="" style="shape=partialRectangle;html=1;whiteSpace=wrap;connectable=0;strokeColor=inherit;overflow=hidden;fillColor=none;top=0;left=0;bottom=0;right=0;pointerEvents=1;fontSize=16;" parent="88VqrS8hQhuFBDtOoWsu-48" vertex="1">
          <mxGeometry width="60" height="20" as="geometry">
            <mxRectangle width="60" height="20" as="alternateBounds" />
          </mxGeometry>
        </mxCell>
        <mxCell id="88VqrS8hQhuFBDtOoWsu-50" value="" style="shape=partialRectangle;html=1;whiteSpace=wrap;connectable=0;strokeColor=inherit;overflow=hidden;fillColor=none;top=0;left=0;bottom=0;right=0;pointerEvents=1;fontSize=16;" parent="88VqrS8hQhuFBDtOoWsu-48" vertex="1">
          <mxGeometry x="60" width="60" height="20" as="geometry">
            <mxRectangle width="60" height="20" as="alternateBounds" />
          </mxGeometry>
        </mxCell>
        <mxCell id="88VqrS8hQhuFBDtOoWsu-51" value="" style="shape=partialRectangle;html=1;whiteSpace=wrap;connectable=0;strokeColor=inherit;overflow=hidden;fillColor=none;top=0;left=0;bottom=0;right=0;pointerEvents=1;fontSize=16;" parent="88VqrS8hQhuFBDtOoWsu-48" vertex="1">
          <mxGeometry x="120" width="60" height="20" as="geometry">
            <mxRectangle width="60" height="20" as="alternateBounds" />
          </mxGeometry>
        </mxCell>
        <mxCell id="88VqrS8hQhuFBDtOoWsu-52" value="" style="shape=tableRow;horizontal=0;startSize=0;swimlaneHead=0;swimlaneBody=0;strokeColor=inherit;top=0;left=0;bottom=0;right=0;collapsible=0;dropTarget=0;fillColor=none;points=[[0,0.5],[1,0.5]];portConstraint=eastwest;fontSize=16;" parent="88VqrS8hQhuFBDtOoWsu-47" vertex="1">
          <mxGeometry y="50" width="180" height="20" as="geometry" />
        </mxCell>
        <mxCell id="88VqrS8hQhuFBDtOoWsu-53" value="" style="shape=partialRectangle;html=1;whiteSpace=wrap;connectable=0;strokeColor=inherit;overflow=hidden;fillColor=none;top=0;left=0;bottom=0;right=0;pointerEvents=1;fontSize=16;" parent="88VqrS8hQhuFBDtOoWsu-52" vertex="1">
          <mxGeometry width="60" height="20" as="geometry">
            <mxRectangle width="60" height="20" as="alternateBounds" />
          </mxGeometry>
        </mxCell>
        <mxCell id="88VqrS8hQhuFBDtOoWsu-54" value="" style="shape=partialRectangle;html=1;whiteSpace=wrap;connectable=0;strokeColor=inherit;overflow=hidden;fillColor=none;top=0;left=0;bottom=0;right=0;pointerEvents=1;fontSize=16;" parent="88VqrS8hQhuFBDtOoWsu-52" vertex="1">
          <mxGeometry x="60" width="60" height="20" as="geometry">
            <mxRectangle width="60" height="20" as="alternateBounds" />
          </mxGeometry>
        </mxCell>
        <mxCell id="88VqrS8hQhuFBDtOoWsu-55" value="" style="shape=partialRectangle;html=1;whiteSpace=wrap;connectable=0;strokeColor=inherit;overflow=hidden;fillColor=none;top=0;left=0;bottom=0;right=0;pointerEvents=1;fontSize=16;" parent="88VqrS8hQhuFBDtOoWsu-52" vertex="1">
          <mxGeometry x="120" width="60" height="20" as="geometry">
            <mxRectangle width="60" height="20" as="alternateBounds" />
          </mxGeometry>
        </mxCell>
        <mxCell id="88VqrS8hQhuFBDtOoWsu-56" value="" style="shape=tableRow;horizontal=0;startSize=0;swimlaneHead=0;swimlaneBody=0;strokeColor=inherit;top=0;left=0;bottom=0;right=0;collapsible=0;dropTarget=0;fillColor=none;points=[[0,0.5],[1,0.5]];portConstraint=eastwest;fontSize=16;" parent="88VqrS8hQhuFBDtOoWsu-47" vertex="1">
          <mxGeometry y="70" width="180" height="20" as="geometry" />
        </mxCell>
        <mxCell id="88VqrS8hQhuFBDtOoWsu-57" value="" style="shape=partialRectangle;html=1;whiteSpace=wrap;connectable=0;strokeColor=inherit;overflow=hidden;fillColor=none;top=0;left=0;bottom=0;right=0;pointerEvents=1;fontSize=16;" parent="88VqrS8hQhuFBDtOoWsu-56" vertex="1">
          <mxGeometry width="60" height="20" as="geometry">
            <mxRectangle width="60" height="20" as="alternateBounds" />
          </mxGeometry>
        </mxCell>
        <mxCell id="88VqrS8hQhuFBDtOoWsu-58" value="" style="shape=partialRectangle;html=1;whiteSpace=wrap;connectable=0;strokeColor=inherit;overflow=hidden;fillColor=none;top=0;left=0;bottom=0;right=0;pointerEvents=1;fontSize=16;" parent="88VqrS8hQhuFBDtOoWsu-56" vertex="1">
          <mxGeometry x="60" width="60" height="20" as="geometry">
            <mxRectangle width="60" height="20" as="alternateBounds" />
          </mxGeometry>
        </mxCell>
        <mxCell id="88VqrS8hQhuFBDtOoWsu-59" value="" style="shape=partialRectangle;html=1;whiteSpace=wrap;connectable=0;strokeColor=inherit;overflow=hidden;fillColor=none;top=0;left=0;bottom=0;right=0;pointerEvents=1;fontSize=16;" parent="88VqrS8hQhuFBDtOoWsu-56" vertex="1">
          <mxGeometry x="120" width="60" height="20" as="geometry">
            <mxRectangle width="60" height="20" as="alternateBounds" />
          </mxGeometry>
        </mxCell>
        <mxCell id="88VqrS8hQhuFBDtOoWsu-61" style="edgeStyle=orthogonalEdgeStyle;rounded=0;orthogonalLoop=1;jettySize=auto;html=1;entryX=0.022;entryY=0.1;entryDx=0;entryDy=0;entryPerimeter=0;strokeWidth=2;" parent="1" source="88VqrS8hQhuFBDtOoWsu-42" target="88VqrS8hQhuFBDtOoWsu-52" edge="1">
          <mxGeometry relative="1" as="geometry" />
        </mxCell>
        <mxCell id="88VqrS8hQhuFBDtOoWsu-78" style="edgeStyle=orthogonalEdgeStyle;rounded=0;orthogonalLoop=1;jettySize=auto;html=1;exitX=0.25;exitY=1;exitDx=0;exitDy=0;entryX=1;entryY=0.5;entryDx=0;entryDy=0;strokeWidth=2;" parent="1" source="88VqrS8hQhuFBDtOoWsu-63" target="88VqrS8hQhuFBDtOoWsu-72" edge="1">
          <mxGeometry relative="1" as="geometry">
            <Array as="points">
              <mxPoint x="650" y="560" />
              <mxPoint x="700" y="560" />
              <mxPoint x="700" y="635" />
            </Array>
          </mxGeometry>
        </mxCell>
        <mxCell id="88VqrS8hQhuFBDtOoWsu-79" style="edgeStyle=orthogonalEdgeStyle;rounded=0;orthogonalLoop=1;jettySize=auto;html=1;exitX=0.75;exitY=1;exitDx=0;exitDy=0;entryX=1;entryY=0.5;entryDx=0;entryDy=0;strokeWidth=2;" parent="1" source="88VqrS8hQhuFBDtOoWsu-63" target="88VqrS8hQhuFBDtOoWsu-73" edge="1">
          <mxGeometry relative="1" as="geometry">
            <Array as="points">
              <mxPoint x="710" y="540" />
              <mxPoint x="730" y="540" />
              <mxPoint x="730" y="675" />
            </Array>
          </mxGeometry>
        </mxCell>
        <mxCell id="88VqrS8hQhuFBDtOoWsu-63" value="Insert into database:&lt;div&gt;&lt;br&gt;&lt;/div&gt;&lt;div&gt;1) Subjects&lt;/div&gt;&lt;div&gt;2) Measurements&lt;/div&gt;" style="rounded=0;whiteSpace=wrap;html=1;strokeWidth=2;spacingTop=2;spacingLeft=2;spacingBottom=2;spacingRight=2;" parent="1" vertex="1">
          <mxGeometry x="620" y="460" width="120" height="70" as="geometry" />
        </mxCell>
        <mxCell id="88VqrS8hQhuFBDtOoWsu-68" value="metadata_variable_options" style="rounded=0;whiteSpace=wrap;html=1;strokeWidth=2;fillColor=#b1ddf0;strokeColor=#10739e;" parent="1" vertex="1">
          <mxGeometry x="300" y="740" width="160" height="30" as="geometry" />
        </mxCell>
        <mxCell id="88VqrS8hQhuFBDtOoWsu-69" value="metadata_variables" style="rounded=0;whiteSpace=wrap;html=1;strokeWidth=2;fillColor=#b1ddf0;strokeColor=#10739e;" parent="1" vertex="1">
          <mxGeometry x="300" y="700" width="160" height="30" as="geometry" />
        </mxCell>
        <mxCell id="88VqrS8hQhuFBDtOoWsu-70" value="annotations" style="rounded=0;whiteSpace=wrap;html=1;strokeWidth=2;fillColor=#b1ddf0;strokeColor=#10739e;" parent="1" vertex="1">
          <mxGeometry x="300" y="660" width="160" height="30" as="geometry" />
        </mxCell>
        <mxCell id="88VqrS8hQhuFBDtOoWsu-71" value="datasets" style="rounded=0;whiteSpace=wrap;html=1;strokeWidth=2;fillColor=#b1ddf0;strokeColor=#10739e;" parent="1" vertex="1">
          <mxGeometry x="300" y="620" width="160" height="30" as="geometry" />
        </mxCell>
        <mxCell id="88VqrS8hQhuFBDtOoWsu-72" value="subjects" style="rounded=0;whiteSpace=wrap;html=1;strokeWidth=2;fillColor=#b1ddf0;strokeColor=#10739e;" parent="1" vertex="1">
          <mxGeometry x="480" y="620" width="160" height="30" as="geometry" />
        </mxCell>
        <mxCell id="88VqrS8hQhuFBDtOoWsu-73" value="measurements" style="rounded=0;whiteSpace=wrap;html=1;strokeWidth=2;fillColor=#b1ddf0;strokeColor=#10739e;" parent="1" vertex="1">
          <mxGeometry x="480" y="660" width="160" height="30" as="geometry" />
        </mxCell>
        <mxCell id="88VqrS8hQhuFBDtOoWsu-90" style="edgeStyle=orthogonalEdgeStyle;rounded=0;orthogonalLoop=1;jettySize=auto;html=1;entryX=0.5;entryY=0;entryDx=0;entryDy=0;strokeWidth=2;" parent="1" source="88VqrS8hQhuFBDtOoWsu-81" target="88VqrS8hQhuFBDtOoWsu-83" edge="1">
          <mxGeometry relative="1" as="geometry" />
        </mxCell>
        <mxCell id="88VqrS8hQhuFBDtOoWsu-81" value="Prepare data for release" style="rounded=0;whiteSpace=wrap;html=1;strokeWidth=2;spacingTop=2;spacingLeft=2;spacingBottom=2;spacingRight=2;" parent="1" vertex="1">
          <mxGeometry x="410" y="900" width="120" height="70" as="geometry" />
        </mxCell>
        <mxCell id="88VqrS8hQhuFBDtOoWsu-83" value="&lt;b&gt;&lt;font style=&quot;font-size: 14px;&quot;&gt;Database (&lt;i style=&quot;&quot;&gt;cvdnet_consolidated_deidentified&lt;/i&gt;) Tables&lt;/font&gt;&lt;/b&gt;" style="rounded=0;whiteSpace=wrap;html=1;align=center;labelPosition=center;verticalLabelPosition=middle;verticalAlign=top;strokeWidth=3;fillColor=#fad7ac;strokeColor=#b46504;" parent="1" vertex="1">
          <mxGeometry x="280" y="1050" width="380" height="210" as="geometry" />
        </mxCell>
        <mxCell id="88VqrS8hQhuFBDtOoWsu-84" value="measurements" style="rounded=0;whiteSpace=wrap;html=1;strokeWidth=2;fillColor=#fff2cc;strokeColor=#d6b656;" parent="1" vertex="1">
          <mxGeometry x="480" y="1130" width="160" height="30" as="geometry" />
        </mxCell>
        <mxCell id="88VqrS8hQhuFBDtOoWsu-85" value="subjects" style="rounded=0;whiteSpace=wrap;html=1;strokeWidth=2;fillColor=#fff2cc;strokeColor=#d6b656;" parent="1" vertex="1">
          <mxGeometry x="480" y="1090" width="160" height="30" as="geometry" />
        </mxCell>
        <mxCell id="88VqrS8hQhuFBDtOoWsu-86" value="datasets" style="rounded=0;whiteSpace=wrap;html=1;strokeWidth=2;fillColor=#fff2cc;strokeColor=#d6b656;" parent="1" vertex="1">
          <mxGeometry x="300" y="1090" width="160" height="30" as="geometry" />
        </mxCell>
        <mxCell id="88VqrS8hQhuFBDtOoWsu-87" value="annotations" style="rounded=0;whiteSpace=wrap;html=1;strokeWidth=2;fillColor=#fff2cc;strokeColor=#d6b656;" parent="1" vertex="1">
          <mxGeometry x="300" y="1130" width="160" height="30" as="geometry" />
        </mxCell>
        <mxCell id="88VqrS8hQhuFBDtOoWsu-88" value="metadata_variables" style="rounded=0;whiteSpace=wrap;html=1;strokeWidth=2;fillColor=#fff2cc;strokeColor=#d6b656;" parent="1" vertex="1">
          <mxGeometry x="300" y="1170" width="160" height="30" as="geometry" />
        </mxCell>
        <mxCell id="88VqrS8hQhuFBDtOoWsu-89" value="metadata_variable_options" style="rounded=0;whiteSpace=wrap;html=1;strokeWidth=2;fillColor=#fff2cc;strokeColor=#d6b656;" parent="1" vertex="1">
          <mxGeometry x="300" y="1210" width="160" height="30" as="geometry" />
        </mxCell>
        <mxCell id="88VqrS8hQhuFBDtOoWsu-91" value="&lt;font style=&quot;font-size: 14px;&quot;&gt;1. The metadata (represented in data dictionaries) needs to be loaded into the database&lt;/font&gt;" style="text;html=1;align=center;verticalAlign=middle;whiteSpace=wrap;rounded=0;" parent="1" vertex="1">
          <mxGeometry x="140" y="20" width="310" height="50" as="geometry" />
        </mxCell>
        <mxCell id="88VqrS8hQhuFBDtOoWsu-92" value="&lt;font style=&quot;font-size: 14px;&quot;&gt;2. Measurements can be added to the database (these are validated against the metadata)&lt;/font&gt;" style="text;html=1;align=center;verticalAlign=middle;whiteSpace=wrap;rounded=0;" parent="1" vertex="1">
          <mxGeometry x="525" y="30" width="310" height="30" as="geometry" />
        </mxCell>
      </root>
    </mxGraphModel>
  </diagram>
</mxfile>
